<svg xmlns="http://www.w3.org/2000/svg" viewBox="0 0 235.5 210.94"><g id="Layer_2" data-name="Layer 2"><g id="Layer_1-2" data-name="Layer 1"><path d="M125.4,21.19l.27.11Z" transform="translate(-0.01)"/><path d="M198.47,128c0-1,.05-1.85.12-2.79s0-1.88,0-2.93c.17-.49.24.6.3,1.87.05.64,0,1.31,0,1.86a3.63,3.63,0,0,0,.07,1c-.14,1.65-.06-.14-.16-.06a31.07,31.07,0,0,0-.3,3.39l0,1.1C198.55,131.19,198.68,125.17,198.47,128Z" transform="translate(-0.01)"/><path d="M192.85,93.3l.14.41Z" transform="translate(-0.01)"/><path d="M192.58,92.49l-.22-.68Z" transform="translate(-0.01)"/><path d="M68.88,7.84l0,0Z" transform="translate(-0.01)"/><path d="M68.6,7.69l-.09-.05Z" transform="translate(-0.01)"/><path d="M45.25,3l.3,0-.3,0L45,3Z" transform="translate(-0.01)"/><path d="M195.7,148.43c.08,0,.28-.85.38-1-.23,1.15-.36,1.66-.4,1.85s0,.08.1,0,.23-.55-.45,1.58l.22.14a30.23,30.23,0,0,0,1.14-5.67c-.13.62-.32,1.23-.08,0s.57-2.23.69-2.11c-1.56,7.67-.47,4.24-1.91,9,.26-.24.23.37.06,1.36,2.08-6.71,2-4.91,2.83-8.56.28-.16-.18,2.29-.32,3.65.43-2,0,.55-.13,1.22.53-2.24.59-2.19.89-3.32-.49.72,0-2.28.54-5s1-5.07,1.15-3c-.08.69-.19,1.51-.28,2.19a9.4,9.4,0,0,0-.17,1.32,14.64,14.64,0,0,0,.5-2.58,9.85,9.85,0,0,0,.07-1.41,12.76,12.76,0,0,1-.12-2c.08,0,.22-.89.31-1.08.07.2-.1,2.16.24.11-.21.27.07-1.64,0-2.44-.2,1.27-.18.29-.53,1,.22-2,.28-3.62.43-4.63-.45,1.53-.28-3.79-.18-4.82-.18,5,.45,2.37.19,7.23.48-3.07.12,1.31.63-2.13,0-.28-.15-.1-.08-1.24.49-.51-.38,6.05-.28,7.17.36-2.33.43-3.5.53-3.76s.16.37.18,1.62l.15-2.36c0-.05.1-.14.15-1.15-.25-1.34-.42.63-.42-2.59.05-.79.18-1.65.17-2.54V121.7c0-.94,0-1.88,0-2.78s0-1.79-.06-2.6c-.23-3.24-.34-5.46,0-4.52,0,.46,0,1.51.1,2.87,0,.68.09,1.45.14,2.25s0,1.67,0,2.54c0,1.73.05,3.52.09,5.1s-.07,2.94,0,3.82c.07-1.54.17-2.75.19-3.71s0-1.67,0-2.17c.05-1,.13-1.23.2-1.13a23,23,0,0,0-.35-2.49c.11.33.19-1,.07-2.51a29.05,29.05,0,0,1-.19-3.34q.24-1,.56,3.64c-.4-2.29-.25-.39-.24,1.28s.1,3.1.2-.12c0,2.75.06,4.57.14,6l-.4,5c-.17,2-.19,4.18-.42,5.6.51-4.88.12-.21.15.08.2-1.55.31-1,.41-2.28.22-4.2.94-14.07-.07-20.22-.33-.9-.24-.88-.43-.11,0-2.35-.18-2.38-.36-2.41s-.38-.08-.73-2.42c-.34-2.85.53,1.35.16-1.11-.21-.31-.26-1.93-.46-2.37.42,2.77-.34-.16-.54-1.23.15-.14.17-.72-.16-2.26a16.83,16.83,0,0,1-.86-2.57,49.29,49.29,0,0,0-1.8-5.52c-.37-1.53-.55-2.24-.77-3.07a34.53,34.53,0,0,0-1.21-3.67c-.3-.15.45,1.73.43,2.22-2.4-6,.06-1.15-2.33-6.63.31,1,.3,1.2.09.82s-.56-1.34-1.14-2.39c-1.09-2.14-2.5-5-3-5.86-1.27-2,.34,1-.86-1,.09.14-.83-1.73-1.65-3.09-.66-1.08-1.27-1.88-1.72-2.52a3.65,3.65,0,0,1-.9-1.47l.82,1.16.67,1.08c.4.62.66,1,.6.71-3.85-6.19-6.89-9.9-7.07-9.63a42.35,42.35,0,0,1,4.3,5.71c-.49-.43-2.2-2.89-3.73-4.72s-2.78-3.15-1.82-1.74a17.47,17.47,0,0,1,2.41,2.79c.65,1,1.24,2,1.86,2.86,2.27,3.16-.68-1.27.93.9.45.6.92,1.34,1.42,2.11s.93,1.64,1.48,2.41l.32.44-.32-.44c-.61-.81-.69-.62-.11.53-1.42-2.65-3.3-4.45-4-5.88,1.53,2.4,2.29,2.76.94.9a12.33,12.33,0,0,1-1.54-2.06,23,23,0,0,0-1.92-2.73c-.12.09-4.1-4.58-1.91-1.68,0-.19.9.85,1.82,2a15.07,15.07,0,0,1,1.77,2.67c-.68-1-.74-1.17-1.28-2-.14,0,.14.51.43,1-.58-.83-1-1.42-1.37-1.86a5.45,5.45,0,0,0-.79-.91c.47.72,1.28,1.63,1.86,2.59a22.53,22.53,0,0,1,1.31,2.2c-1.63-2.63-3.89-5.35-3.83-5.73l-2.46-2.78c-.77-.91-1.63-1.7-2.51-2.64l-3-3.19c-1.16-1.21-2.63-2.48-4.32-4.09-.78-.08,3.7,3.37,3.94,4.18a28.61,28.61,0,0,0-3.14-3l-3.86-3.33c-.6-.8,0-.36.73.23s1.52,1.39,1.47,1.08c-.63-.61-1.11-1.11-1.58-1.52s-.93-.76-1.4-1.16l-4.13-3.4c-1.67-1,3.05,2.56,2.5,2.37-3.87-2.88-3.15-2.86-4.34-3.77.18.16-3.28-2.07-2.88-2.08a21.66,21.66,0,0,1-3-1.95c-1.26-.53,3.07,2.41,3.52,2.94A47.58,47.58,0,0,0,147,32a31.48,31.48,0,0,1-4.69-3.09c1,.63,1.24.7,2,1.2.16.18-.11.12.85.73-.43-.41,4,2.31,1.19.47-.54,0-2.25-1.72.14-.11,0,.09,1.21.84,1.06.57a36.33,36.33,0,0,0-3.62-2.16c-.4-.2-.79-.4-1.33-.71s-1.2-.73-2.22-1.29c2,1.52-3.75-1.89-6.51-3.05l.25-.24c-1.41-.78-2.26-1.18-3.06-1.64,1.54,1.18-.46,0-3.21-1.47-1.41-.39,1.49.95,1.84,1.27-2.36-1.14-4.06-2.07-5.26-2.65a8.16,8.16,0,0,0-2.13-.81c-2.51-1.09-1.79-1.07-5.19-2.47-.24,0,0,.26-1.25-.26a2.84,2.84,0,0,0-1.09-.41c2.16,1.14-3.13-.73-.52.6,1.64.52,2.34,1,2.28,1a9.6,9.6,0,0,1-2.45-.84l.17-.2c-2-.58-3.11-1.25-5.5-1.94-.22-.28.39-.19,1.37.06a34.67,34.67,0,0,1-3.23-1.27c.17-.06,0-.36-1-.53,0,.15-.42.14-1.33-.07,1.75.52,3.81,1.34,3.19,1.28-4.28-1.74.28.12-.17.2a33.76,33.76,0,0,0-4.75-1.63c-1.65-.47-3.21-.87-4.18-1.1,3.5,1,4,1.2,2.11.84a31.61,31.61,0,0,0,3.44.89,11.87,11.87,0,0,1,3.27,1.14c-5.32-1.81,3,1.17,3.16,1.33-3.77-1.37-2.7-.64-5.72-1.62l.21-.28c-2.36-.75-5.51-1.35-6.73-2,3.19.83.34-.23-1.85-1.19.38.24,0,.16-.52.06s-1-.17-.85,0a12.14,12.14,0,0,1,2.17.74,19.72,19.72,0,0,0-3.05-.64,34.8,34.8,0,0,1-3.9-.86c.9.1-2-.91-2.14-.74,1.48.45-1.11,0,2,.89L85.14,8.69c-1.32-.31-2.21-.52-2.62-.65,1.55.25,3.49.63,4.65.85a37.8,37.8,0,0,0-4.46-1.15c.1.3-2.2-.13-1.51.35a37,37,0,0,0,4.14.82A11.88,11.88,0,0,1,88,9.63c-3.54-1-1.68-.21-4.62-.89A21,21,0,0,0,80,8c1.78.21-1-.53-.89-.63-2.88-.5-1.86.15-4.88-.39a34.27,34.27,0,0,0-6.9-1.06A33.1,33.1,0,0,1,74,7.35c1.21,0,5.25,1.18,4.68.69,3.68,1,2,.71,6.42,2l-3.37-.75c-.12-.13.33-.17-1-.47-.36.08-1.83-.46-2.3-.43a10.94,10.94,0,0,1,3.09,1.2c-1.67-.39-4.15-.89-4.44-1.07.07-.1,2,.37,2.34.35-2.34-.54-4-1-5.34-1.36s-2.38-.64-3.42-.94c-2.81-.39-.79,0-2.4-.17L66,6c-.37-.21,1.79.11.13-.23a11.59,11.59,0,0,1-2.27-.4c1.89.5.66.33-.59.14s-2.55-.3-.76.06C63.59,5.61,70.72,7,68,7c1.71.29,4.16.77,4.57.73a17.86,17.86,0,0,1-2.22-.48c1.13.2,1.39.17,2.31.32-.43.11,1.45.41,2.13.66-2.1-.5-2.37-.08-3.52-.4a7.26,7.26,0,0,1,1.22,0c-2.72-.39-4.22-.77-4.66-.58-3-.59,2.74.09-2-.79,0,.15-1,0-2.39-.17-.82-.39,1.71.09,1.34-.18a16.4,16.4,0,0,0-3.41-.54A13.12,13.12,0,0,1,63.53,6a14.38,14.38,0,0,0-2.32-.26c3.46.59-1.39.06-2.32-.23-1.35.13,3.76.67,4.39,1-1.88-.28-.75.12-2.4-.09-2.9-.7-2.66-.57-3.41-.47-1.41-.31-1.31-.49.2-.39-4.39-.74-2.46-.13-4.68-.4,0-.1-2-.36-2.2-.45,3.64.32,1.8-.29,7,.53.42-.1-1.46-.37-2.16-.55a26.57,26.57,0,0,1,7,.71,16,16,0,0,0-4.33-1.1c-.32.12,1.21.35,1,.47C56,4.07,55,4.28,53.58,3.92c3.36.4,1.34.06,1.3-.15a71,71,0,0,0,9.4.84,16,16,0,0,1,2.23.48c-2.84-.39,1.92.6-1.3.11-1.5-.27-1-.33-2.2-.56-.19.25-2.47.09.85.74,3.36.32,6.31.67,8.3.8-.73-.06,3.93,1,2.27.41C74,6.44,73,6.25,70,5.55c-.24.06.06.25-1.27,0,1.65,0-4.08-.93-.93-.58a32.43,32.43,0,0,1-3.37-.69,42.22,42.22,0,0,1,5.61,1.17,11.15,11.15,0,0,1,2.28.41c1.55,0-3.66-.72-2.1-.71-5.31-.86-6.6-1.21-3.38-.69a38.3,38.3,0,0,0-4.61-.86,43.06,43.06,0,0,1-4.48-.71c.07-.1,2,.21,2.38.16-1.39-.2-2.71-.4-2.21-.47h.18a42.45,42.45,0,0,1-4.63-.36,22.63,22.63,0,0,1,5.23,1.22c-.64-.09-1.34-.12,0,.08a27.66,27.66,0,0,1,4.75.33c-3-.32.86.52-1.35.22C59,3.55,54.3,3,53,2.67a16.82,16.82,0,0,1,2.42.08L51.34,2.2,48,1.85c-2.11-.22-4.05-.41-6.45-.55.89.11,1.3.2,1.08.27-5.1-.37-3.1.06-4.62-.41A27.81,27.81,0,0,1,34.5,1c-.23.08.1.24-1.26.17C31.37.7,39.52,1.15,37,.84A68.76,68.76,0,0,1,30,.32c.09.21-.74.3-2.48.26-1.51-.29,3.11-.12.13-.33C26.59.42,26,0,23.09,0c-.41.15,1.5.21,2.22.31-3.18-.12-1.21.28-3.6.23-.15-.13.53-.29-1-.36-.28.06-.1.16-1.22.13-7.27-.2.37.1,1.09.2,1.25.17-1.32.34,2.28.15,1.43.25-3.52.24-.16.41.3-.34.77,0,2.31.07,1.56-.3,5.95.25,3.6-.16A29.41,29.41,0,0,0,32.12,1c.86.29-1.72.11-1.33.34,6.25.38,2.05.36,4.44.69a11.85,11.85,0,0,1,3,0c1.55,0,3.28.27,4.11.25.92.19,1.42.37,1,.52a13.52,13.52,0,0,0-3.48-.27c3.51.43,4.9.47,3.26.75,4.52.53.68-.4,4.78.06-1.4,0,.55.38-2.52.24,2,.23,3,.18,3.44.35-.64-.07-1.34-.07,0,.08,1.77,0-.63-.72,2.72-.65-.1.1.45.25,1,.4-.09.12-3.18-.27-2.45,0,.65.14,4.4.58,4.5.74-4.32-.68-3.62-.22-7-.57-2.37-.47-5.57-.73-7.92-1-1.62-.08-.31.29-2.44.16C29.35,2.62,33.52,2.5,27,2c-2.9.08.29.44,2.07.71,2.52,0,5.79.44,2,.28l4.83.25h0c3.08.12,5.15.33,8.12.44-.41.13-3.18-.16-3.58,0,.65.19,4.4.46,4.5.62-2-.2-3.56-.34-4.61-.38-1.21-.67-1.48,0-4.43-.65h0c.69.29-3.22-.05-2.48.25a31.35,31.35,0,0,1,3.41.3c-2,.22-3-.32-6.92-.36.23.08,0,.17,1.08.24a9.43,9.43,0,0,1,2.3.14c-5.56-.11-6.16-.43-11.58-.32-.4-.13-1.33-.18.09-.24-4.29-.25-2.29.16-5.8,0-1.08-.49-4-.76,1.39-.63-4.29-.13,0-.32-2.18-.39A127,127,0,0,0,0,3c1.28.36,10,.16,7.78.79l3.44,0c-.28-.27-1.81-.45-4.39-.56C8,3.16,8.34,3,6.89,3A3.37,3.37,0,0,1,5.74,3c4.75-.17,1.35-.4,4.81-.6-2.05.32.19.16,2.18.32-3.2.15-.62.22-2.47.51,4,.07,6.5.28,8.34.36a24.88,24.88,0,0,1,4.08.47c0-.26,3.7-.13,2.52-.51,4.42.26,8.44.15,12.61.76-2.67,0-7.84-.19-11.5-.64-.86.15-.26.21.51.31s1.73.2,1.59.31A30.52,30.52,0,0,0,23.85,4c2.87.11,2.75.23,2.52.34s-.58.21,1.84.43c-1.82-.41.07-.43,2.35,0,.15-.25-2.18-.49.24-.56,1.12.58.81.1,3.43.21,0,.21-5.12.21.87.73-1.51-.1-1.1.07-2.35,0a8.21,8.21,0,0,0-2.26-.22c.89.07,1.3.15,1.08.23,2.28,0,3.33.14,4.42.26l4.67.46c-.12-.25.06-.44,3.6,0l-.19.4c7.19.92,4,.17,8,.83a5.2,5.2,0,0,0-2.39,0c.54.17,1.59.36,2.12.57,3.08.44,2.33.18,4.51.63,1.78,0-.21-.39,1.33-.24,1.74.35,4.49.73,2.3.24,1.44.21,1.51.29,3.34.57l.17-.31c1.55.28,2.49.41,3.41.53-2.07.05,6.37,1.07,5.79.69-4.38-.89-2.85-.26-5.75-.77.59-.23-3.56-1-4.2-1.34l3.37.6c-.42.15.24.41,3.21.91-2.16-.88-1.52-1,1.69-.79-2.37-.11,1,.35,2,.78-2.26-.47-6.27-1-3.46-.45A40.5,40.5,0,0,1,75,9.94c-2.46-.47-2.12-.27-1.36,0s1.88.66,1,.64c-1.6-.34-2-.23-3.45-.48-.21-.1,0-.16-1-.35-2.52-.28-.22.25,2.06.7.08-.16,1.08,0,2.38.31s2.94.76,4.35,1c1.15.1-3.19-1,.18-.3,2.21.64.82.45,2,.8a14.13,14.13,0,0,1,2.31.34c-1.35-.2-.88,0,.38.29l5,1.35c-.68-.43-3.79-1.48-8.64-2.45,1,0-1.79-.65-.84-.7a32.45,32.45,0,0,1,3.29.81,17.23,17.23,0,0,0-2.27-.41c4.53,1,2.5.58,2.08.71,1.75.35,3.11.72,4.21,1l2.65.74c1.37.41,2.1.66,3,.94-1.19-.21-1.26,0-2.44-.23,3.59,1,3.94.3,6.69,1.63.16-.18-.29-.6,2.48.26a24.49,24.49,0,0,0,4.17,1.58c1.23.07-4.81-1.59-4.12-1.65,1.32.4.72.13.1-.14a33.39,33.39,0,0,0,4.39,1.3c-.05.07.82.36,1,.48-1.19-.36-2.69-.7-1.19-.2,3.91.85,4.79,1.2,5.84,1.3,3.15,1.28-.43.09,3,1.45a7.79,7.79,0,0,1,2.41.46c1,.3,1.86.54,1.27.2a32,32,0,0,0,3.26,1.21c.9.54-3.33-1.12-.23.26A32.08,32.08,0,0,1,126,25.63l4.4,2.11c1.37.6,2.47,1.25,3.25,1.53,1.11.86-.71-.09.73.79a2.9,2.9,0,0,1,1,.56A21.39,21.39,0,0,1,132.05,29a10.38,10.38,0,0,1-1.84-1.18c-1.41-.38-4.11-2.11-8-3.84-.53,0,.51.34,1.61.87s2.35,1.09,2.3,1.27c-1.21-.57-2.88-1.42-3.12-1.43,1.5.75.79.61.78.75,1.77.87,3.18,1.53,4.13,1.93.35,0-1-.7-.77-.75,1.2.82,3.2,1.39,4,2.05l-2-1c-.51-.09,1.34.89-.19.18-.62-.3-1.21-.57-1.08-.43,4.16,2,5,1.87,7.2,3.51.13-.06-.33-.39-.8-.73,2.07,1.1,3.18,1.63,4.35,2.23a51.53,51.53,0,0,1,4.55,2.85c1.73.75-3.21-2.09-2.67-2,.23,0,0-.27,1.16.44a28.42,28.42,0,0,0,2.88,1.82c.37.3.67.57,1.18,1s1.23.89,2.37,1.72c-.44-.59,2,1.27,3,1.83l-.14.1,1.53,1.1a20.73,20.73,0,0,1,1.74,1.35,15,15,0,0,0,2.16,1.65c-.7-.64-2-1.8-3.29-2.78a25.66,25.66,0,0,1-2.77-2.18c1.32.89.41-.1,2.13,1.13,1.44,1,3.12,2.78,3.58,2.79l2.18,2.43,1.57,1.29c.48.44.93.84,1.31,1.2a7.17,7.17,0,0,0,1.49,1.17c-2.4-2.06-3.52-3.58-1.43-1.67,1.87,2,2.75,3,.37,1,5.64,5.05,3.88,3.93,6.76,6.8l.36.36-.36-.36c-.25-.24-.34-.27.28.4s1.58,1.33,2.54,2.25,1.89,2.11,2.91,3.29c2.13,2.31,4,5.13,5.75,7.36.2.48.52,1,1,1.94a27.17,27.17,0,0,1,1.73,2.89c.34.25-.61-1.34-.9-2,.74,1.24.91,1.31,1.82,2.88.06.22-.16.06.4,1,.42-.3,1.76,3.36,2.4,3.93-1.09-2.2-.86-2.19-.57-2.07,1.8,3.31,2.49,5,3.54,7.11-.5-1.32-.76-2.14-.59-2.11a31.13,31.13,0,0,0,1.28,3.14c-1.54-3,.56,2.4.84,3.15-.06.1-.75-1.5-.18,0,1.31,3.31.25-.36,1.25,2.13a2.82,2.82,0,0,0,.35,1.07c-.2-.6-.33-1.22.09,0a23.68,23.68,0,0,0,.46,2.39c.13.5.28,1,.46,1.54a12.39,12.39,0,0,0,.53,1.46l-.33-1.4a2.61,2.61,0,0,1-.17-.77c.36,1.07.43,1.3.67,2.18-.33.22.73,2.68,1.14,4.4.07.33.14.64.2,1,0-.56.63,2.8.87,4.6l-.26,0c-.63-3,0-2.09-.45-3.33l0-.35a32.48,32.48,0,0,0,.64,4.78h0l0,.25.22.87c-.07.14.12,1.94-.26,0,0-.21.14,0,0-.82l-.07-.26-.23,0a31,31,0,0,0,.64,3.58,2.36,2.36,0,0,1,.31,1c.06,1.5,0,2.05-.16,2.16-.12-1.37-.24-2.66-.35-2.28,0,1.38.48,5.89,0,4.37.14,2,0,6.54.18,6.73a33.77,33.77,0,0,1,.37-5.46c0,3.44,0,2.13,0,5.61-.14.54-.33.24-.47.35s-.19.61-.31,2.76c.1-2,.32,0,.1,2.33-.22,1-.06-3.46-.33-.14.28-.23-.4,3.13-.12,3.37a15.43,15.43,0,0,1,.22-2.19c.11,1.51.34-.09.6-2.36.12-1.13.32-2.43.37-3.58s.1-2.15.17-2.7c0,.77,0,1.5.05,2.2s.05,1.36,0,2c0,1.26,0,2.43,0,3.53s0,2.11,0,3.09a21.69,21.69,0,0,1-.46,2.83c.39-1.16.36.18.2,2-.08.92-.2,2-.31,2.87s-.35,1.68-.45,2.07a22,22,0,0,0,.27-2.31,23.89,23.89,0,0,0,.53-3.32c-.17-.25-.36-.36-.62.88a56.43,56.43,0,0,0,.46-5.7,15.66,15.66,0,0,0,.38-2.15c-.13-.15-.27.14-.39,1-.07,2-.31,3.71-.4,5.21s-.17,2.82-.23,4.08a46.17,46.17,0,0,1-1.36,7.74c-.09,1.49.13,1.65.68.42.59-3.37,1.32-6.87,1.58-7.81-.2,1.53-.77,4.19-.67,4.6.13-.63.32-1.23.07,0a22.57,22.57,0,0,0-.71,3.28c-.24,1.11-.37,1.66-.12,0-1,3.72-.22,2-.89,4.6-.27.5-.63,1.5-.89,2a24.34,24.34,0,0,0,1-4.5c-.58,2.06.05-.7-.44,1-1.46,6.66-.95,5.68-.11,3.85C195.22,151.32,194.62,152.32,195.7,148.43Z" transform="translate(-0.01)"/><path d="M196.68,147.78c.4-1.7.4-1.36.24-.47-.07.45-.18,1-.3,1.55a8.8,8.8,0,0,1-.41,1.2,3,3,0,0,1,.31-1.11C196.75,148,196.71,147.88,196.68,147.78Z" transform="translate(-0.01)"/><path d="M198.22,137.43c-.19,1.23-.26.69-.46,2.19-.14,1-.11,1.09-.08,1.18-.33.95-.12,0-.05-1.25s.21-2.61,0-2.44C198.21,132.94,198,137.4,198.22,137.43Z" transform="translate(-0.01)"/><path d="M199.59,126.11c-.09,3.93-.66,4-.29,4.61-.63,3.57.3-6.89-.36-11.74a39.84,39.84,0,0,1,.38,4.62C199.45,125.37,199.34,126.78,199.59,126.11Z" transform="translate(-0.01)"/><path d="M199.44,119.13c.25-.89.32,1.11.44,2.45a27,27,0,0,0-.14,3.41A35.84,35.84,0,0,1,199.44,119.13Z" transform="translate(-0.01)"/><path d="M197.58,116.32c-.06,1.7-.32-3.13-.68-6.8C197.52,111.16,197.17,114.15,197.58,116.32Z" transform="translate(-0.01)"/><path d="M186.21,77.21a44,44,0,0,1,1.94,4.07C187.38,80.32,186.9,78.56,186.21,77.21Z" transform="translate(-0.01)"/><path d="M183.49,73.34c-.07-.44.63.63.92.91.34.7.1.5.22.84s.54,1.25,2.07,4.22C185.3,77.23,185.3,76.33,183.49,73.34Z" transform="translate(-0.01)"/><path d="M185.43,75.14c-.37.11-1.11-2.08-1.58-3C182.78,70,184.83,74.07,185.43,75.14Z" transform="translate(-0.01)"/><path d="M183.45,70c.87,1.62,1.12,2.32.24,1.06S183.42,70.24,183.45,70Z" transform="translate(-0.01)"/><path d="M175,62.41a35.87,35.87,0,0,1-3.71-4.3,32.12,32.12,0,0,1,3.17,3.37C174.21,61.37,174.43,61.72,175,62.41Z" transform="translate(-0.01)"/><path d="M166.87,53.05l1.55,1.65c.19.47-1.26-1.1-2.48-2.39C166.15,52.43,166.79,53.09,166.87,53.05Z" transform="translate(-0.01)"/><path d="M160.46,46.73c.5.37,1,.74,1.06.65.13.37,3.56,3.43,3,3.26C162.12,48.48,162.49,48.58,160.46,46.73Z" transform="translate(-0.01)"/><path d="M138.9,27.47c-.27-.28.92.4,2.11,1.08s2.3,1.48,2.05,1.17c3.75,2.49.08.31-1.26-.4A17.44,17.44,0,0,0,138.9,27.47Z" transform="translate(-0.01)"/><path d="M138.51,29.25l.14-.12c.67.38,1.34.74,2,1.14l-.14.11Z" transform="translate(-0.01)"/><path d="M118.56,18.26c-.82-.39-1.67-.81-3.15-1.42,1.49.52.81.18.14-.17s-1.36-.63.15-.17c1.29.59,2.12,1,2,1.11,2.22.82-1.44-1,4.46,1.63Z" transform="translate(-0.01)"/><path d="M113.66,20.53c-5-2-1.14-.86,0,0Z" transform="translate(-0.01)"/><path d="M105.16,17.31c2.82,1,3.52,1.63,1,.46C104.19,17.24,103.31,16.93,105.16,17.31Z" transform="translate(-0.01)"/><path d="M99.42,16c-.66-.3-2.45-.87-2-.9,2,.68,1.82.82,5.33,1.85,4,1.43-4.22-1.34-3.37-.88C98.13,15.66,98.81,15.8,99.42,16Z" transform="translate(-0.01)"/><path d="M100.87,15.85c1.9.62,2.39.9,2,1C99.51,15.85,101,16.05,100.87,15.85Z" transform="translate(-0.01)"/><path d="M98,12.49a49.51,49.51,0,0,1,5.56,1.66A34,34,0,0,1,98,12.49Z" transform="translate(-0.01)"/><path d="M100.42,12.83c3.25,1-4.53-.91-3.36-1A13.39,13.39,0,0,0,100.42,12.83Z" transform="translate(-0.01)"/><path d="M93.51,15a11,11,0,0,0,1.2.15c.87.29,1,.41,2.12.76a8.49,8.49,0,0,0-1.18-.2A19.83,19.83,0,0,0,93.51,15Z" transform="translate(-0.01)"/><path d="M93.32,11.48c-2.42-.66,2.36.19,3.43.8C96.43,12.26,93.43,11.36,93.32,11.48Z" transform="translate(-0.01)"/><path d="M86.54,9.84c-1.69-.25-3.79-1-6.69-1.63C78,7.6,84.53,9.27,86.54,9.84Z" transform="translate(-0.01)"/><path d="M75.74,8.67c-3.08-.72.09-.25,2.34.34-.24.05.16.19,1,.4.16.11-.48,0-1.17-.17C76.53,9.21,78.38,9,75.74,8.67Z" transform="translate(-0.01)"/><path d="M76.05,10.26c1.2.37.88.37-1.2-.09-.11-.21,1.06,0,3.48.51A16.49,16.49,0,0,1,76.05,10.26Z" transform="translate(-0.01)"/><path d="M72.76,7.3a20.87,20.87,0,0,1-3.48-.45C68.84,6.59,71,7,72.76,7.3Z" transform="translate(-0.01)"/><path d="M63.15,6.68l3.39.61c.25.24-3.31-.5-3.51-.37C61.37,6.63,63.52,6.88,63.15,6.68Z" transform="translate(-0.01)"/><path d="M64.45,6.58c1.22.24.69.29,2.18.56a2.85,2.85,0,0,1-1.13-.21C62.15,6.46,64.2,6.77,64.45,6.58Z" transform="translate(-0.01)"/><path d="M58.24,6.75c3.22.58,1.22.48-.24.47C55,6.63,61.16,7.41,58.24,6.75Z" transform="translate(-0.01)"/><path d="M53.93,3.22a49.86,49.86,0,0,1,5.69.87c-.12.31-5.77-.78-5.8-.64C49.33,2.61,61.17,4.39,53.93,3.22Z" transform="translate(-0.01)"/><path d="M50.78,7.15c-.25-.19,6.16.73,3.35.54a11.53,11.53,0,0,0-1.51-.27l-1.26-.19C51,7.17,50.78,7.15,50.78,7.15Z" transform="translate(-0.01)"/><path d="M49.76,4.29c3,.32-1.63,0-.15.32C37.65,3.18,46.77,4.33,49.76,4.29Z" transform="translate(-0.01)"/><path d="M49.11,3.14c.3.18-6.5-.5-4.56-.54C45.54,2.77,47.11,3,49.11,3.14Z" transform="translate(-0.01)"/><path d="M43.19,5.55c-2.11-.07-3.49-.39-8-.58-.48-.36,4,.35,3.57-.1-1-.08-1.09,0-1.18,0-.89-.2-.36-.16.84,0s3.07.4,4.86.56C42.54,5.4,41.82,5.4,43.19,5.55Z" transform="translate(-0.01)"/><path d="M36.17,5.37l.07-.16a34.43,34.43,0,0,0,3.46.16c2.93.32-1.62,0-.14.32C37.7,5.55,37.63,5.48,36.17,5.37Z" transform="translate(-0.01)"/><path d="M29.94.56C31.22.49,32.52,1,31,.88,30.19.84,29.37.59,29.94.56Z" transform="translate(-0.01)"/><path d="M167.19,199.22l-.15.11Z" transform="translate(-0.01)"/><path d="M155.1,136.72a27,27,0,0,1-.22,3.62c-.4.62-.07-2.79-.31-3,.1-1,.06.09.16,0a12.77,12.77,0,0,0,.21-2.15v-.69C155,134.7,155,138.52,155.1,136.72Z" transform="translate(-0.01)"/><path d="M155.19,159.31l0-.27Z" transform="translate(-0.01)"/><path d="M155.17,159.86l0,.46Z" transform="translate(-0.01)"/><path d="M197.35,178.23h0Z" transform="translate(-0.01)"/><path d="M197.57,178.22h0Z" transform="translate(-0.01)"/><path d="M211.41,172.17l-.17.11.17-.11.11-.07Z" transform="translate(-0.01)"/><path d="M155.74,123.62c-.08,0-.13.56-.21.68.23-3-.32.62.05-2.2l-.24-.06a22.23,22.23,0,0,0-.06,3.67c0-.41.12-.8.08,0s-.2,1.45-.33,1.38c.29-4.94-.16-2.69.19-5.84-.21.18-.31-.2-.37-.84-.49,4.41-.87,3.26-1.09,5.61-.25.11-.2-1.44-.27-2.29-.12,1.28-.07-.33-.12-.77a11.16,11.16,0,0,1-.3,2.13c.74-1,.17,7.6-.56,5a13.25,13.25,0,0,0,.05-2.19c-.48,2.85.11,2.56.19,3.73-.08,0-.13.56-.21.68-.09-.12-.11-1.34-.24-.06.17-.18.1,1,.15,1.51.13-.79.17-.18.46-.61-.08,1.26-.16,2.25-.26,2.88.37-.95.42,2.37.23,3,.18-3.09-.48-1.49-.31-4.51-.4,1.91-.15-.8-.58,1.32.06.18.16.07.12.77-.5.31.29-3.74-.06-4.44-.2,2.9-.38,2.87-.5,1.34l-.09,1.45c-.05,0-.1.09-.12.71.28.82.4-.39.48,1.6-.41,3.88-.64,10.51-1.07,9.29a61.85,61.85,0,0,0,.62-10.15c-.14,3.77-.37,4.42-.51,4.29,0,1.53.22.7.24,1.54-.24-.42-.27,3.3-.47,3.55s-.28-.36-.11-2.24c.19,2.83.64-4.62.13-.7.12-1.68.15-2.79.14-3.65a49.25,49.25,0,0,0,.56-6.48c-.2,3-.06.13-.16,0-.06.95-.19.62-.26,1.4-.05,2.58-.65,8.57-.75,12.33.22.58.12.55.41.11-.49,2.83.54.13.31,3-.22,1.75-.26-.88-.37.64.14.21-.12,1.18,0,1.47.13-1.7.3.15.28.81-.16.06-.3.41-.41,1.37.2.58.11,2.08.18,5.21a40.7,40.7,0,0,0-.6,4.26c.2.16.32-1.07.5-1.34-.24,3.94-.52.62-.6,4.26.6-2.62,0,4,0,5.16,0,1.48.25-.6.2.8a14.28,14.28,0,0,0-.3,2.13c-.08,1.54.31,2.46-.09,2.92.06-1.14.16-2.51,0-2.22-.33,4.45-.48,7.36-.2,7.32a27.94,27.94,0,0,1,.18-4.38c.21.79-.17,7.31.26,5.24-.26-1.56.21-3.05.27-4.36.11-2.38-.23.87-.2-.79,0-.92.31-2.13.25-3.29,0-.09,0-.21,0-.33,0,.1,0,.22,0,.33.07.62.24.56.38-.22-.18,1.83.12,3.42-.18,4.37.23-1.75-.15-2.21-.2-.79.2.68-.2,2.32-.23,3.62.15,0,.05,3.79.32,1.57-.22.17,0-3.4.23-3.63-.05.72-.12.84-.18,1.43.12.06.21-.29.29-.66a16.56,16.56,0,0,0-.13,2.17c.19-1,.33-3,.55-3.53-.2,1.9-.39,4.09-.68,4.24.07,3.32-.08,5.16-.42,10.94.43.41.17-3.1.55-3.54-.29,1.77,0,3.43-.19,5.85-.55,1.19,0-1.86-.4-1.58-.24,2.15-.18,2.52-.44,5.77.22,1.21.2-2.45.38-2.1a8.3,8.3,0,0,1-.47,3.53c0-.14.09,2.41-.13,2.2a8,8,0,0,1,0,2l-.26,4.48,4-2.23.18-.1c.18-.21,0-.19-.27-.06l-4.13,1.8.62-3.89c.11-.71.18-2.33.31-2.61-.09,1-.11,1.83-.12,2.62v4l3.23-2.05a20.65,20.65,0,0,1,4.69-2.64c-.64.35-.74.48-1.25.78-.15,0-.06-.15-.68.19.37-.07-2.42,1.58-.56.6.09-.4,1.66-.64,0,.16-.06-.07-.83.39-.61.43,2.65-1.39,1.83-1.36,4.37-2.71-1.53.46,2.2-1.42,3.66-2.6l.1.33c.88-.49,1.41-.74,1.93-1-1.22.25.16-.27,1.88-1.14.65-.66-1.05.36-1.37.38,2.86-1.58,4.34-2.12,4.45-2.46,1.51-.81,1.27-.38,3.25-1.52.07-.15-.18-.17.56-.6a1.24,1.24,0,0,0,.64-.35c-1.49.45,1.53-1.31-.23-.73-1.82,1.15-2,.67-.08-.24l.08.24c1.07-.77,1.88-.93,3.15-1.84.26.08,0,.37-.51.76a12.09,12.09,0,0,1,1.93-1c0,.14.24.23.69-.19-.1-.11.06-.33.53-.68-1,.55-2.2,1.24-2,.9,2.6-1.27-.18.07-.07-.24a34.1,34.1,0,0,0,5-3c-2,1.18-2.25,1.31-1.32.54-1.68.88-2,1.67-3.76,2.28,3-1.83-1.8.91-2,.89,2.2-1.21,1.33-1.15,3.05-2.17l.1.33c1.36-.75,2.92-2,3.76-2.28-1.72,1.15,0,.35,1.45-.14-.6.07.83-.7.51-.75a6.71,6.71,0,0,1-1.3.62,41.55,41.55,0,0,1,3.69-2.52c-.42.39,1.37-.35,1.32-.54-.88.42.47-.55-1.37.38,2.42-1.33,4-2.19,4.47-2.39-.82.55-1.88,1.2-2.47,1.66.87-.45,1.25-.56,2.57-1.33-.22-.19,1-1,.43-1-2.19,1.06-2.6,1.85-3.78,2.19,2.06-1.06.78-.75,2.46-1.65a7.8,7.8,0,0,0,1.91-1.06c-.9.7.73,0,.76.06,1.54-1,.71-1,2.34-2.06a13.57,13.57,0,0,0,3.76-2.28,13.33,13.33,0,0,1-3.89,1.88c-.51.61-3,1.62-2.44,1.73-2.17,1-1.29.42-4,1.55l1.91-1.06c.13,0,0,.29.71-.11.1-.24,1.06-.54,1.24-.79a5,5,0,0,1-2.06.58,21,21,0,0,1,2.57-1.33c0,.11-1.09.69-1.22.86a31.41,31.41,0,0,1,5.24-2.33c1.51-1,.34-.38,1.19-.95l1.27-.7c.29,0-.87.73.08.24a4.55,4.55,0,0,1,1.27-.71c-2.31.91,2.63-1.68.51-.75-.53.43-4.6,2.55-3.31,1.36a21.16,21.16,0,0,0-2.51,1.49,6.66,6.66,0,0,1,1.29-.63c-.63.35-.73.49-1.24.79.14-.27-.91.31-1.35.46,1.23-.6,1.12-1,1.83-1.3.15-.06-.53.48-.58.52,1.47-.93,2.37-1.3,2.46-1.66,1.7-.87-1.3,1.17,1.4-.3-.08-.12.42-.48,1.19-.95.6-.06-.83.71-.51.76a9.57,9.57,0,0,0,1.91-1.06,6.37,6.37,0,0,1-1.3.63,7.33,7.33,0,0,0,1.25-.79c-2,1,.63-.63,1.24-.78.58-.67-2.19,1-2.64,1.08,1.05-.58.29-.42,1.2-.94,1.79-.66,1.6-.66,1.9-1.06.85-.35.91-.15.13.4,2.52-1.25,1.25-.94,2.46-1.65,0,.1,1.14-.54,1.33-.54-2,1.24-.71,1-3.69,2.52-.14.26.91-.32,1.35-.47-1.06.84-.66.91-3.74,2.36a6.79,6.79,0,0,0,2.7-.92c.09-.23-.78.22-.74,0,1.92-.85,2.31-1.47,3.18-1.77-1.83,1.1-.68.52-.54.68a23.19,23.19,0,0,0-4.93,3.3,6.66,6.66,0,0,1-1.29.63c1.52-1-1.22.39.53-.68.84-.46.62-.18,1.32-.54,0-.27,1.11-1.14-.81-.22-1.72,1.27-3.26,2.33-4.25,3.12.37-.3-2.36,1-1.27.7.29-.07.86-.38,2.62-1.16.07-.16-.18-.17.56-.6-.72.78,2.39-1.1.76.05a13.15,13.15,0,0,1,1.93-1,16.91,16.91,0,0,1-3.22,1.6,4.5,4.5,0,0,1-1.27.7c-.71.7,2.07-1.08,1.37-.38,2.9-1.71,3.68-2,1.93-1,.72-.18,4.52-2.55,5.13-2.65,0,.11-1.08.69-1.22.86.78-.42,1.52-.81,1.33-.54l-.09.07a17.44,17.44,0,0,1,2.4-1.65,9,9,0,0,1-3.18,1.2c.36-.19.7-.46,0-.08a11.83,11.83,0,0,1-2.44,1.74c1.58-1-.72-.07.5-.76,1.8-.87,4.32-2.37,5.14-2.66-.85.57.31,0-1.2.95,3.35-1.91,5.06-2.67,7.6-4.31-.5.26-.76.34-.68.19,2.73-1.67,1.51-1.25,2.54-1.41a11.19,11.19,0,0,1,1.88-1.14c.07-.15-.18-.17.56-.59,1.22-.26-3.22,2.28-1.73,1.62a27.16,27.16,0,0,1,3.84-2q-.24-.23,1.14-1.11c.93-.3-1.54,1.21.1.32.48-.54,1-.34,2.57-1.33.14-.26-.91.32-1.35.46,1.76-.93.5-.63,1.8-1.38.15.07-.13.43.74,0,.12-.15,0-.17.59-.52,4-2.22-.25,0-.69.19-.75.27.53-.73-1.3.63-.89.25,1.76-1.37-.12-.41,0,.39-.42.25-1.27.71-.71.72-3.23,1.89-1.81,1.38a11.28,11.28,0,0,0-1.85,1.22c-.6.06.83-.71.5-.76-3.43,1.92-1.25.43-2.66,1,.1.26-2.89,1.79-3.71,2.43-.57.21-.91.25-.77-.05a5.32,5.32,0,0,0,1.88-1.14c-2,1-2.7,1.53-2,.66-2.55,1.32-.12.59-2.41,1.81.67-.57-.49-.1,1.11-1.19a17.07,17.07,0,0,1-1.9,1.06c.35-.2.7-.47,0-.08-.85.73.72.34-1,1.59,0-.13-.35,0-.71.11,0-.16,1.7-1.06,1.17-1s-2.45,1.35-2.59,1.25c2.44-1.28,1.87-1.32,3.73-2.36,1.45-.53,3.18-1.56,4.53-2.22.86-.54,0-.37,1.17-1,4.3-2.4,2.2-.8,5.87-2.69,1.48-1.06-.4-.29-1.45.14-1.31.92-3.24,1.72-1.21.5L216,168.49h0c-1.68,1-2.82,1.64-4.36,2.71.13-.27,1.67-1.12,1.8-1.38-.42.1-2.45,1.34-2.59,1.24a29.2,29.2,0,0,0,2.52-1.49c1,.09.72-.6,2.63-1.08h0c-.51,0,1.7-1.13,1.15-1.11a12.66,12.66,0,0,1-1.93,1c1-.92,1.75-.82,3.79-2.19-.16,0-.07-.15-.69.19a3.73,3.73,0,0,1-1.27.7c3-1.89,3.4-1.9,6.28-3.76.28,0,.8-.29.07.24,2.44-1.21,1.15-.9,3.13-1.92.83.06,2.51-.67-.43,1,2.37-1.31.14.29,1.37-.39,3.07-1.82,6.61-4,8-5.31-.88.07-5.62,2.88-4.7,1.66l-1.91,1.06c.3.15,1.24-.15,2.72-.84-.64.35-.75.58,0,.16a1.22,1.22,0,0,1,.64-.35c-2.55,1.58-.55.75-2.36,2,1-.89-.19-.08-1.38.38,1.7-1.1.24-.38,1.12-1.19-4.51,2.19-5.71,3-7.17,3.31.15.22-1.92,1.34-1.09,1.27-2.48,1.31-4.48,2.91-7,3.88a48.18,48.18,0,0,1,6.33-3.6c.77-.82-1.46.51-1.42.22.84-.48,2.45-1,2.56-1.33-3.2,1.71,0-.55-2.71.84,1.16-.31.18.39-1.22.87.05.26,1.39-.37.17.56-.89-.08-.48.21-1.9,1.06-.1-.18,2.56-2-.84-.29.84-.47.53-.47,1.22-.87a3.32,3.32,0,0,0,1.29-.62c-.5.25-.75.34-.68.19-2.43,1.57-2.4,1.21-5.11,2.74.2.16.22.39-1.78,1.46l-.13-.41c-4.12,2.08-2.11,1.39-4.44,2.47.79-.48,1.26-.82,1.19-.95-.37.07-1,.32-1.37.38a20.22,20.22,0,0,1-2.54,1.41c-.89.72.32.23-.51.76-1,.46-2.59,1.31-1.25.79-.81.44-.9.38-1.93,1l.1.33c-.87.48-1.38.81-1.88,1.13.92-1-3.57,2-3.07,2.09,2.54-1.29,1.46-1.09,3.1-2-.13.46,2.21-.84,2.72-.84l-1.91,1.06c.11-.31-.34-.22-2,.73,1.5-.28,1.3.13-.31,1.41,1.15-1-.65.15-1.4.3,1.32-.65,3.46-2.07,1.86-1.22a24.11,24.11,0,0,1-3.25,1.52c2.72-1.65-1,.19-.21-.65.9-.52,1-.73,1.86-1.22.16,0,.07.15.68-.19,1.32-.93,0-.3-1.37.38.14.36-2.23,1.24-3.79,2.2-.56.49,2-.79.11.32-1.36.58-.64.06-1.38.38a5.88,5.88,0,0,1-1.22.87c1.43-1-1.25.39-3.25,1.52.57,0,2.44-.94,5.19-2.5-.39.51,1.17-.37.78.13a12.09,12.09,0,0,1-1.93,1,8.28,8.28,0,0,0,1.25-.78c-2.57,1.45-1.45.76-1.35.46a52.56,52.56,0,0,1-5.77,3c.62-.47.53-.65,1.15-1.11-2.07,1.18-1.84,1.77-3.74,2.36,0,.22.5.28-1.12,1.19a10.15,10.15,0,0,0-2.62,1.16c-.51.63,2.88-1.51,2.65-1.08-.77.44-.36.3.05.16a12.74,12.74,0,0,0-2.52,1.49c0-.08-.54.19-.68.19.68-.4,1.48-1,.58-.51a27.56,27.56,0,0,0-3,2.48c-2,1,.09-.31-2,.74,0,.33-2.51,2.06-1.68,1.78a12.24,12.24,0,0,0-1.86,1.22c-.65.19,1.82-1.32-.1-.32-.9,1.2-7.1,4.12-8.71,5.5-.88.25.24-.43-.74,0a1.29,1.29,0,0,1-.64.35,9,9,0,0,1,3.3-1.78c.67-.67,2.61-1.39,5-2.8.37-.6-2.39,1.46-2.61,1.17a14.78,14.78,0,0,0,1.88-1.14c-.95.5-.65.13-.74,0a29.2,29.2,0,0,0-2.52,1.49c-.09.23.78-.22.74,0-.91.27-1.87,1.21-2.57,1.33l1.27-.71c.21-.27-1,.32-.07-.24.38-.22.74-.43.61-.43-2.62,1.41-2.64,2.19-4.37,2.71,0,.12.35,0,.71-.11a60.47,60.47,0,0,1-5.67,3.33c-.89.83,2.18-1.15,2-.81-.07.15.18.17-.56.59a11.54,11.54,0,0,0-1.9,1.06,8.77,8.77,0,0,0-1.91.78l3.84,2.28.06-.8c-.25.44-.06-1.55-.11-2.24l.16,0a41,41,0,0,0,.19-4.37c-.21,1.22-.32,4.47-.56,5,0-1-.31-.2-.24-1.54.12-1.13.43-2.66.18-2.9l.63-2.05a15.21,15.21,0,0,0,.06-3.67c0,2-.42,3.2-.34,1.39.26-1.72.47-2.59.54-.59.16-4.88.41-3.55.47-6.18,0-.1,0-.21,0-.33v.33c0,.22,0,.28.09-.31-.41-2.32-.07-7.42-.07-11.07a6.63,6.63,0,0,0,.34-1.39,11.34,11.34,0,0,1,.13-2.17c-.15-.26-.22.93-.33,1.38.05-.93,0-1,.05-2.2.07-.14.16,0,.21-.68-.43,0,.13-2.45-.15-3-.11,1.58-.3,1.5-.5,1.34,0-2.44.31-3.61.15-5.12-.09.9-.2,1.45-.34,1.38a11.67,11.67,0,0,0,.14-2.18c.15,2.2.49-1.54.54-2.06.1,0,.06,1.09.16,0,0-2.3-.33.15-.4-1.58a1.22,1.22,0,0,0,0-.72c0,.4-.12.8-.09,0a7.58,7.58,0,0,0,.39-3.58,6.63,6.63,0,0,1-.17,1.43c0-.72,0-.88,0-1.47.37-.07,0-1.79.09-2.92l.06-.64a14.47,14.47,0,0,1,.08-3l.25.06c0,2-.45,1.31-.22,2.16l0,.23a13.44,13.44,0,0,0,.31-3.11h0l0-.17c0-.18,0-.37,0-.58s.26-1.24.24.07c-.06.13-.14,0-.19.51v.17l.22.06c.22-3.16-.26-2.11-.23-3s.26-1.3.42-1.36c-.05.89-.09,1.73.07,1.5.17-.89.24-3.83.51-2.82a37.73,37.73,0,0,0,.18-4.37,14.43,14.43,0,0,1-.63,3.52c.19-2.22.14-1.38.22-3.63.33-.69.71.8.79-2-.06,1.31-.32,0-.16-1.51.2-.66.14,2.24.33.08-.27.16.34-2,.05-2.19a6.5,6.5,0,0,1-.17,1.42c-.29-2-.79,4.19-1.17,5.59.26-4-.4-6.41.12-8.82-.56,1.52-.4-3.43-.22-4.48-.06,1,.1.7.07,1.49a10.13,10.13,0,0,0-.21,2.16c.19.15.39.21.53-.59-.17,2.26.11,2,0,3.69a6.67,6.67,0,0,0-.34,1.38c.14.1.27-.09.37-.64.3-5.22-.58-7.1,0-11-.18-1-.45-1-.74-.2a46.44,46.44,0,0,1-.31,5.08,18.08,18.08,0,0,0-.07-3c0,.41-.12.8-.08,0,.3-.68.08-4.29.3-2.13.21-2.46-.23-1.28-.15-3,.14-.34.27-1,.41-1.36a10.23,10.23,0,0,0,0,2.94c.1-1.36.11.45.21-.68-.08-4.36-.35-3.67-.77-2.42C155.56,121.76,155.94,121.07,155.74,123.62Z" transform="translate(-0.01)"/><path d="M154.88,124.13c-.24,2.2-.2-.88,0-1.48a1.18,1.18,0,0,1,0,.73C154.79,124,154.83,124.07,154.88,124.13Z" transform="translate(-0.01)"/><path d="M154.8,130.74c.07-.78.2-.45.26-1.41.05-.61,0-.69,0-.74.33-1.24,0,2.56.44,2.33C155.23,133.59,155.05,130.75,154.8,130.74Z" transform="translate(-0.01)"/><path d="M154,137.9c0-2.47.56-2.54.18-2.9.51-2.25,0,4.35.21,7.43C154.1,141.48,154.45,137.07,154,137.9Z" transform="translate(-0.01)"/><path d="M153.93,142.3c-.3.54-.28-.72-.32-1.56a11.71,11.71,0,0,0,.29-2.13A14,14,0,0,1,153.93,142.3Z" transform="translate(-0.01)"/><path d="M155.56,144.21c.25-1.07,0,2-.19,4.37C155,147.48,155.69,145.63,155.56,144.21Z" transform="translate(-0.01)"/><path d="M154.52,170.47c-.18-.25.22-1.91.26-2.88C155,168.37,154.57,169.5,154.52,170.47Z" transform="translate(-0.01)"/><path d="M154.84,173.5c-.19.26-.19-.56-.29-.81.21-1,.38.76.55-3.54C155.29,170.76,155,171.26,154.84,173.5Z" transform="translate(-0.01)"/><path d="M154.19,171.85c.38.08-.2,1.5-.3,2.14C153.6,175.52,154.11,172.64,154.19,171.85Z" transform="translate(-0.01)"/><path d="M153.07,175.24c.15-1.16.32-1.61.37-.64S153.2,175.15,153.07,175.24Z" transform="translate(-0.01)"/><path d="M155.2,182.45a14.12,14.12,0,0,1-.06,3.67,13.75,13.75,0,0,1-.15-3C155.08,183.27,155.15,183,155.2,182.45Z" transform="translate(-0.01)"/><path d="M154.63,190.4l.09-1.45c.2-.29.09,1.08,0,2.22C154.69,191,154.71,190.42,154.63,190.4Z" transform="translate(-0.01)"/><path d="M154.11,196.16c0-.4-.09-.79-.2-.79.2-.21.27-3.16.51-2.82C154.36,194.62,154.18,194.4,154.11,196.16Z" transform="translate(-0.01)"/><path d="M159.38,204.28c.52,0-3,1.6-2.49,1.57-2.5,1.27-.24-.12.53-.68A11.72,11.72,0,0,0,159.38,204.28Z" transform="translate(-0.01)"/><path d="M158.21,202.93l0,.16-1.27.71-.05-.16Z" transform="translate(-0.01)"/><path d="M171.25,196.93c.52-.24,1.05-.48,1.93-1-1.63,1.12,1.75-.72.12.4-.79.4-1.33.62-1.34.46-1.24.82,1.09-.22-2.47,1.66Z" transform="translate(-0.01)"/><path d="M171.29,192.35c3-1.54,1-.07,0,0Z" transform="translate(-0.01)"/><path d="M176.4,189.61c-1.67.93-2.3.93-.66.27C176.78,189.07,177.34,188.84,176.4,189.61Z" transform="translate(-0.01)"/><path d="M179.43,187.36c.43-.14,1.48-.72,1.34-.46a28.51,28.51,0,0,0-3.22,1.6c-2.47,1.2,2.47-1.36,1.85-1.22C180.13,186.9,179.78,187.16,179.43,187.36Z" transform="translate(-0.01)"/><path d="M179,188.28c-1.13.6-1.49.66-1.37.38C179.48,187.52,178.78,188.22,179,188.28Z" transform="translate(-0.01)"/><path d="M182.22,189.13a20.39,20.39,0,0,1-3.15,1.85A13.49,13.49,0,0,1,182.22,189.13Z" transform="translate(-0.01)"/><path d="M181.08,190.24c-1.88,1,2.28-1.83,1.88-1.13A5.43,5.43,0,0,0,181.08,190.24Z" transform="translate(-0.01)"/><path d="M182.37,184.87c-.1.14-.61.44-.58.52-.52.27-.66.27-1.3.62.1-.13.61-.43.59-.51C181.6,185.23,181.74,185.23,182.37,184.87Z" transform="translate(-0.01)"/><path d="M184.66,187.4c1.4-.73-1.09,1-1.85,1.22C182.92,188.42,184.69,187.54,184.66,187.4Z" transform="translate(-0.01)"/><path d="M188.42,185.13c.82-.73,2.24-1.08,3.84-2C193.45,182.68,189.57,184.49,188.42,185.13Z" transform="translate(-0.01)"/><path d="M193.76,180.74c1.77-.94.11.24-1.22.87.07-.15-.19-.07-.69.19-.13,0,.23-.22.61-.44C193.09,180.7,192.44,181.8,193.76,180.74Z" transform="translate(-0.01)"/><path d="M192.67,179.64c-.75.29-.61.14.58-.52.17.12-.44.55-1.83,1.3A7.08,7.08,0,0,1,192.67,179.64Z" transform="translate(-0.01)"/><path d="M195.89,180.41a8.66,8.66,0,0,1,1.86-1.22C198.1,179.2,196.89,179.85,195.89,180.41Z" transform="translate(-0.01)"/><path d="M200.65,176.54l-1.91,1.06c-.26-.08,1.81-1.11,1.83-1.3C201.52,175.81,200.35,176.54,200.65,176.54Z" transform="translate(-0.01)"/><path d="M200.11,177.22c-.7.36-.48.07-1.32.54a1.17,1.17,0,0,1,.64-.35C201.24,176.27,200.12,177,200.11,177.22Z" transform="translate(-0.01)"/><path d="M203,174.4c-1.88.89-.87.13-.16-.48C204.57,173.14,201.18,175.1,203,174.4Z" transform="translate(-0.01)"/><path d="M207,175.47a19.46,19.46,0,0,1-3.2,1.68c-.12-.3,3.19-1.79,3.13-1.92C209.57,174,202.91,177.55,207,175.47Z" transform="translate(-0.01)"/><path d="M206.34,170.91c.21,0-3.4,2-1.94,1C204.17,172.06,206.34,170.91,206.34,170.91Z" transform="translate(-0.01)"/><path d="M208.45,172.88c-1.65.89.82-.62-.1-.33C215.11,169.07,209.92,171.67,208.45,172.88Z" transform="translate(-0.01)"/><path d="M209.41,173.58c-.24,0,3.52-2.12,2.57-1.33C211.39,172.5,210.52,173,209.41,173.58Z" transform="translate(-0.01)"/><path d="M211,169.26c1.11-.76,1.94-1.1,4.42-2.55.44.13-2.28,1.16-1.8,1.38.54-.29.58-.36.61-.43,1.14-.32-1.18.64-3.18,1.76C211.45,169.13,211.81,168.85,211,169.26Z" transform="translate(-0.01)"/><path d="M214.72,166.74l.05.16a10.3,10.3,0,0,0-1.88,1.14c-1.64.89.83-.62-.1-.33C213.81,167.12,213.91,167.18,214.72,166.74Z" transform="translate(-0.01)"/><path d="M220.52,168.55c-.62.52-1.54.59-.71.11C220.24,168.41,220.8,168.32,220.52,168.55Z" transform="translate(-0.01)"/></g></g></svg>